<svg width="20" height="20" viewBox="0 0 20 20" fill="none" xmlns="http://www.w3.org/2000/svg">
<path d="M17.6621 5.51028V5.23669C17.6621 3.97899 16.6389 2.95575 15.3812 2.95575H2.28094C1.0232 2.95579 0 3.97899 0 5.23669V5.51028H17.6621Z" fill="#B1B1B1"/>
<path d="M10.4347 12.8474C10.4347 11.6643 10.8152 10.5397 11.5178 9.61292H0V12.7946C0 14.0523 1.0232 15.0756 2.28094 15.0756H10.9162C10.601 14.3851 10.4347 13.6291 10.4347 12.8474ZM8.83109 12.1561H6.8625V10.9842H8.83109V12.1561ZM2.62727 10.9842H5.69063V12.1561H2.62727V10.9842Z" fill="#B1B1B1"/>
<path d="M12.7344 8.44106C13.6281 7.81578 14.6898 7.47891 15.8033 7.47891C16.4478 7.47891 17.0748 7.59207 17.6621 7.80836V6.68219H0V8.44106H12.7344Z" fill="#B1B1B1"/>
<path d="M20 12.8474C20 10.5297 18.121 8.65076 15.8033 8.65076C13.4855 8.65076 11.6066 10.5297 11.6066 12.8474C11.6066 15.1652 13.4855 17.0441 15.8033 17.0441C18.121 17.0441 20 15.1652 20 12.8474ZM16.369 15.0894V15.5663H15.783V15.5664V15.5663H15.1971V15.0929C14.8428 14.973 14.553 14.7619 14.27 14.5549L14.9618 13.609C15.342 13.8872 15.5366 14.0208 15.8033 14.0208C15.9541 14.0208 16.0761 13.9491 16.1219 13.8336C16.1773 13.6937 16.099 13.5649 15.9124 13.4889C15.9124 13.4889 15.0748 13.2096 14.6876 12.8148C14.3627 12.4836 14.2594 12.0168 14.3628 11.5728C14.4669 11.1257 14.7688 10.7761 15.1971 10.6016V10.1285H16.369V10.582C16.6666 10.6646 16.9185 10.7868 17.0634 10.8654L16.5043 11.8953C16.1335 11.6941 15.7925 11.6337 15.6598 11.6791C15.531 11.7231 15.5114 11.807 15.5041 11.8387C15.4936 11.8835 15.488 11.9522 15.5597 12.0321C15.6286 12.1089 16.3542 12.4036 16.3542 12.4036C17.1371 12.7223 17.5055 13.5226 17.2113 14.2653C17.0585 14.6512 16.7508 14.9435 16.369 15.0894Z" fill="#B1B1B1"/>
</svg>
