<svg width="18" height="18" viewBox="0 0 18 18" fill="none" xmlns="http://www.w3.org/2000/svg">
<g clip-path="url(#clip0_3_2662)">
<path d="M8.23822 18C6.68805 18 5.42572 16.7385 5.42572 15.1875C5.42572 14.877 5.67772 14.625 5.98822 14.625C6.29872 14.625 6.55072 14.877 6.55072 15.1875C6.55072 16.1183 7.30823 16.875 8.23822 16.875C9.16821 16.875 9.92572 16.1183 9.92572 15.1875C9.92572 14.877 10.1777 14.625 10.4882 14.625C10.7987 14.625 11.0507 14.877 11.0507 15.1875C11.0507 16.7385 9.78853 18 8.23822 18Z" fill="#FE5C73"/>
<path d="M14.4257 15.75H2.05074C1.32701 15.75 0.738281 15.1613 0.738281 14.4375C0.738281 14.0534 0.905548 13.6898 1.19724 13.44C1.21605 13.4235 1.23624 13.4085 1.25725 13.3949C2.35822 12.4342 2.98828 11.052 2.98828 9.59244V7.49995C2.98828 4.60506 5.34402 2.25 8.23824 2.25C8.35826 2.25 8.48804 2.2522 8.60806 2.27252C8.91472 2.32347 9.12181 2.61378 9.07072 2.91975C9.01978 3.22572 8.72424 3.43282 8.42349 3.38173C8.36348 3.37198 8.29756 3.375 8.23824 3.375C5.96434 3.375 4.11328 5.22523 4.11328 7.49995V9.59244C4.11328 11.4045 3.31897 13.119 1.93607 14.2957C1.9248 14.3047 1.91505 14.313 1.90297 14.3212C1.88278 14.3468 1.86328 14.3858 1.86328 14.4375C1.86328 14.5394 1.94884 14.625 2.05074 14.625H14.4257C14.5278 14.625 14.6133 14.5394 14.6133 14.4375C14.6133 14.3849 14.5938 14.3468 14.5728 14.3212C14.5616 14.313 14.5518 14.3047 14.5405 14.2957C13.1568 13.1182 12.3633 11.4045 12.3633 9.59244V8.77505C12.3633 8.46455 12.6153 8.21255 12.9258 8.21255C13.2363 8.21255 13.4883 8.46455 13.4883 8.77505V9.59244C13.4883 11.0528 14.1191 12.4357 15.2216 13.3973C15.2417 13.4107 15.2612 13.425 15.2792 13.4408C15.5711 13.6898 15.7383 14.0534 15.7383 14.4375C15.7383 15.1613 15.1496 15.75 14.4257 15.75Z" fill="#FE5C73"/>
<path d="M13.4883 7.49995C11.4206 7.49995 9.73828 5.81781 9.73828 3.75005C9.73828 1.68228 11.4206 0 13.4883 0C15.5561 0 17.2382 1.68228 17.2382 3.75005C17.2382 5.81781 15.5561 7.49995 13.4883 7.49995ZM13.4883 1.125C12.0407 1.125 10.8633 2.30246 10.8633 3.75005C10.8633 5.19749 12.0407 6.37495 13.4883 6.37495C14.9358 6.37495 16.1132 5.19749 16.1132 3.75005C16.1132 2.30246 14.9358 1.125 13.4883 1.125Z" fill="#FE5C73"/>
</g>
<defs>
<clipPath id="clip0_3_2662">
<rect width="18" height="18" fill="white"/>
</clipPath>
</defs>
</svg>
