<svg width="20" height="20" viewBox="0 0 20 20" fill="none" xmlns="http://www.w3.org/2000/svg">
<g clip-path="url(#clip0_3_2989)">
<path d="M3.84909 13.3343C4.05021 13.4539 4.22289 13.6097 4.36069 13.7896H6.96482V11.2645L5.73001 10.4989C5.455 10.3284 5.37028 9.96723 5.54077 9.69221C5.7113 9.41728 6.07232 9.33256 6.34745 9.50297L7.5507 10.249L8.59951 9.59875C6.5076 6.73027 6.98802 2.66576 9.77256 0.371683C5.1858 -1.16489 0.374264 2.2508 0.352547 7.15648C0.34122 9.75807 1.72629 12.0705 3.84909 13.3343Z" fill="#B1B1B1"/>
<path d="M4.7271 14.9614H10.2735V16.2894H4.7271V14.9614Z" fill="#B1B1B1"/>
<path d="M8.13656 11.2645V13.7896H10.632C10.7645 13.6148 10.9298 13.4649 11.1222 13.3516C11.6547 13.0382 12.1436 12.6559 12.5768 12.2183C11.3529 11.9427 10.2538 11.3341 9.3798 10.493C9.34648 10.5147 9.10631 10.6632 8.13656 11.2645Z" fill="#B1B1B1"/>
<path d="M14.0622 0.00183105C10.99 0.00183105 8.47675 2.54054 8.47675 5.6263C8.47675 8.52884 10.7049 10.9323 13.5618 11.1888C16.868 11.4842 19.6476 8.86338 19.6476 5.6263C19.6476 2.54651 17.142 0.00183105 14.0622 0.00183105ZM14.6488 8.16575V8.2882C14.6488 8.61176 14.3865 8.87408 14.0629 8.87408C13.7394 8.87408 13.4771 8.61176 13.4771 8.2882V8.23199C13.2071 8.18465 12.9605 8.08365 12.6489 7.8798C12.3781 7.70267 12.3023 7.33958 12.4794 7.06878C12.6565 6.79795 13.0196 6.7221 13.2904 6.89919C13.576 7.08605 13.6685 7.10061 14.059 7.09792C14.4359 7.09542 14.5861 6.79955 14.6154 6.62515C14.6417 6.46856 14.6122 6.26038 14.3218 6.15777C13.8354 5.9858 13.3365 5.78847 12.9832 5.51131C12.1785 4.8802 12.4214 3.43873 13.4771 3.05514V2.9703C13.4771 2.64674 13.7394 2.38442 14.063 2.38442C14.3866 2.38442 14.6489 2.64674 14.6489 2.9703V3.0028C14.9376 3.08427 15.17 3.23164 15.3297 3.39405C15.5566 3.62473 15.5535 3.99567 15.3228 4.22257C15.0922 4.44934 14.7216 4.44633 14.4947 4.21604C14.462 4.18413 14.2815 4.03364 13.8908 4.15132C13.7348 4.19831 13.6929 4.36009 13.6837 4.40856C13.6647 4.50973 13.6918 4.57792 13.7063 4.58933C13.9273 4.76267 14.3389 4.92098 14.7123 5.05299C16.2565 5.5988 16.0684 7.65255 14.6488 8.16575Z" fill="#B1B1B1"/>
<path d="M5.66451 18.1642C5.66451 19.1765 6.48803 20 7.50028 20C8.51253 20 9.33604 19.1765 9.33604 18.1642V17.4612H5.66451V18.1642Z" fill="#B1B1B1"/>
</g>
<defs>
<clipPath id="clip0_3_2989">
<rect width="20" height="20" fill="white"/>
</clipPath>
</defs>
</svg>
