<svg width="20" height="20" viewBox="0 0 20 20" fill="none" xmlns="http://www.w3.org/2000/svg">
<path d="M4.16667 18.3334C4.16719 18.7752 4.34295 19.1988 4.6554 19.5113C4.96785 19.8237 5.39147 19.9995 5.83333 20H14.1667C14.6085 19.9995 15.0322 19.8237 15.3446 19.5113C15.657 19.1988 15.8328 18.7752 15.8333 18.3334V17.6042H4.16667V18.3334Z" fill="#B1B1B1"/>
<path d="M15.8333 1.66667C15.8328 1.2248 15.657 0.801181 15.3446 0.488734C15.0322 0.176287 14.6085 0.000523784 14.1667 0L5.83333 0C5.39147 0.000523784 4.96785 0.176287 4.6554 0.488734C4.34295 0.801181 4.16719 1.2248 4.16667 1.66667V2.5H15.8333V1.66667Z" fill="#B1B1B1"/>
<path d="M19.7678 5.36039L17.2678 2.75623L16.0655 3.91039L17.1115 4.99998H15.8333V6.66664H17.2013L16.0901 7.73164L17.2432 8.93498L19.7432 6.53914C19.8223 6.46338 19.8856 6.37279 19.9296 6.27253C19.9737 6.17228 19.9975 6.06433 19.9998 5.95486C20.0021 5.84539 19.9828 5.73655 19.943 5.63454C19.9031 5.53254 19.8436 5.43938 19.7678 5.36039Z" fill="#B1B1B1"/>
<path d="M13.3333 4.99998H15.8333V3.33331H4.16667V13.3333H6.66667V15H4.16667V16.6666H15.8333V6.66665H13.3333V4.99998ZM12.5 8.33331H9.58333C9.47283 8.33331 9.36685 8.37721 9.28871 8.45535C9.21057 8.53349 9.16667 8.63947 9.16667 8.74998C9.16667 8.86049 9.21057 8.96647 9.28871 9.04461C9.36685 9.12275 9.47283 9.16665 9.58333 9.16665H10.4167C10.9333 9.16613 11.4317 9.3576 11.8151 9.70389C12.1986 10.0502 12.4396 10.5266 12.4915 11.0406C12.5435 11.5546 12.4025 12.0696 12.0961 12.4856C11.7897 12.9016 11.3396 13.1888 10.8333 13.2916V14.1666H9.16667V13.3333H7.5V11.6666H10.4167C10.5272 11.6666 10.6332 11.6227 10.7113 11.5446C10.7894 11.4665 10.8333 11.3605 10.8333 11.25C10.8333 11.1395 10.7894 11.0335 10.7113 10.9554C10.6332 10.8772 10.5272 10.8333 10.4167 10.8333H9.58333C9.06669 10.8338 8.56828 10.6424 8.18486 10.2961C7.80145 9.94979 7.56038 9.47339 7.50846 8.95935C7.45653 8.44532 7.59746 7.93034 7.90388 7.51437C8.2103 7.0984 8.66035 6.81112 9.16667 6.70831V5.83331H10.8333V6.66665H12.5V8.33331Z" fill="#B1B1B1"/>
<path d="M2.79864 13.3333L3.90989 12.2683L2.75677 11.065L0.256768 13.4608C0.177715 13.5366 0.114366 13.6272 0.0703438 13.7274C0.0263211 13.8277 0.00248711 13.9356 0.00020407 14.0451C-0.00207897 14.1546 0.0172337 14.2634 0.0570382 14.3654C0.0968427 14.4674 0.156359 14.5606 0.232185 14.6396L2.73218 17.2438L3.93448 16.0896L2.88854 15H4.16666V13.3333H2.79864Z" fill="#B1B1B1"/>
</svg>
